<svg width="1372" height="1839" viewBox="0 0 1372 1839" fill="none" xmlns="http://www.w3.org/2000/svg">
<circle cx="686" cy="920" r="684.5" fill="#D72323" stroke="white" stroke-width="3"/>
<path d="M759.625 944.031H637.555V821.961H759.625V748.719L686.383 672.059L784.039 504.578H930.523V626.648H788.922L930.523 748.719V1237H710.797V1114.93H759.625V944.031ZM442.242 748.719L369 672.059L466.656 504.578H613.141V626.648H471.539L613.141 748.719V1237H393.414V1114.93H442.242V748.719Z" fill="white"/>
<path d="M759.625 944.031H763.625V940.031H759.625V944.031ZM637.555 944.031H633.555V948.031H637.555V944.031ZM637.555 821.961V817.961H633.555V821.961H637.555ZM759.625 821.961V825.961H763.625V821.961H759.625ZM759.625 748.719H763.625V747.115L762.517 745.956L759.625 748.719ZM686.383 672.059L682.927 670.044L681.411 672.645L683.491 674.822L686.383 672.059ZM784.039 504.578V500.578H781.741L780.584 502.563L784.039 504.578ZM930.523 504.578H934.523V500.578H930.523V504.578ZM930.523 626.648V630.648H934.523V626.648H930.523ZM788.922 626.648V622.648H778.156L786.31 629.678L788.922 626.648ZM930.523 748.719H934.523V746.886L933.135 745.689L930.523 748.719ZM930.523 1237V1241H934.523V1237H930.523ZM710.797 1237H706.797V1241H710.797V1237ZM710.797 1114.93V1110.93H706.797V1114.93H710.797ZM759.625 1114.93V1118.93H763.625V1114.93H759.625ZM442.242 748.719H446.242V747.115L445.134 745.956L442.242 748.719ZM369 672.059L365.545 670.044L364.028 672.645L366.108 674.822L369 672.059ZM466.656 504.578V500.578H464.358L463.201 502.563L466.656 504.578ZM613.141 504.578H617.141V500.578H613.141V504.578ZM613.141 626.648V630.648H617.141V626.648H613.141ZM471.539 626.648V622.648H460.773L468.927 629.678L471.539 626.648ZM613.141 748.719H617.141V746.886L615.752 745.689L613.141 748.719ZM613.141 1237V1241H617.141V1237H613.141ZM393.414 1237H389.414V1241H393.414V1237ZM393.414 1114.93V1110.93H389.414V1114.93H393.414ZM442.242 1114.93V1118.93H446.242V1114.93H442.242ZM759.625 940.031H637.555V948.031H759.625V940.031ZM641.555 944.031V821.961H633.555V944.031H641.555ZM637.555 825.961H759.625V817.961H637.555V825.961ZM763.625 821.961V748.719H755.625V821.961H763.625ZM762.517 745.956L689.275 669.295L683.491 674.822L756.733 751.482L762.517 745.956ZM689.838 674.073L787.495 506.593L780.584 502.563L682.927 670.044L689.838 674.073ZM784.039 508.578H930.523V500.578H784.039V508.578ZM926.523 504.578V626.648H934.523V504.578H926.523ZM930.523 622.648H788.922V630.648H930.523V622.648ZM786.31 629.678L927.912 751.748L933.135 745.689L791.534 623.619L786.31 629.678ZM926.523 748.719V1237H934.523V748.719H926.523ZM930.523 1233H710.797V1241H930.523V1233ZM714.797 1237V1114.93H706.797V1237H714.797ZM710.797 1118.93H759.625V1110.93H710.797V1118.93ZM763.625 1114.93V944.031H755.625V1114.93H763.625ZM445.134 745.956L371.892 669.295L366.108 674.822L439.35 751.482L445.134 745.956ZM372.455 674.073L470.112 506.593L463.201 502.563L365.545 670.044L372.455 674.073ZM466.656 508.578H613.141V500.578H466.656V508.578ZM609.141 504.578V626.648H617.141V504.578H609.141ZM613.141 622.648H471.539V630.648H613.141V622.648ZM468.927 629.678L610.529 751.748L615.752 745.689L474.151 623.619L468.927 629.678ZM609.141 748.719V1237H617.141V748.719H609.141ZM613.141 1233H393.414V1241H613.141V1233ZM397.414 1237V1114.93H389.414V1237H397.414ZM393.414 1118.93H442.242V1110.93H393.414V1118.93ZM446.242 1114.93V748.719H438.242V1114.93H446.242Z" fill="black"/>
</svg>
